<svg aria-hidden="true" style="position: absolute; width: 0; height: 0; overflow: hidden;" version="1.1" xmlns="http://www.w3.org/2000/svg" xmlns:xlink="http://www.w3.org/1999/xlink">
<defs>
<symbol id="icon-server" viewBox="0 0 32 32">
<path fill="#f53838" style="fill: var(--color1, #f53838)" d="M26.24 4.543h-20.48c-0.679 0-1.33 0.27-1.81 0.75s-0.75 1.131-0.75 1.81v5.12c0 0.679 0.27 1.33 0.75 1.81s1.131 0.75 1.81 0.75h20.48c0.679 0 1.33-0.27 1.81-0.75s0.75-1.131 0.75-1.81v-5.12c0-0.679-0.27-1.33-0.75-1.81s-1.131-0.75-1.81-0.75zM19.84 9.663c0 0.707-0.573 1.28-1.28 1.28s-1.28-0.573-1.28-1.28c0-0.707 0.573-1.28 1.28-1.28s1.28 0.573 1.28 1.28zM24.96 9.663c0 0.707-0.573 1.28-1.28 1.28s-1.28-0.573-1.28-1.28c0-0.707 0.573-1.28 1.28-1.28s1.28 0.573 1.28 1.28zM26.24 17.343h-20.48c-0.679 0-1.33 0.27-1.81 0.75s-0.75 1.131-0.75 1.81v5.12c0 0.679 0.27 1.33 0.75 1.81s1.131 0.75 1.81 0.75h20.48c0.679 0 1.33-0.27 1.81-0.75s0.75-1.131 0.75-1.81v-5.12c0-0.679-0.27-1.33-0.75-1.81s-1.131-0.75-1.81-0.75zM19.84 22.463c0 0.707-0.573 1.28-1.28 1.28s-1.28-0.573-1.28-1.28c0-0.707 0.573-1.28 1.28-1.28s1.28 0.573 1.28 1.28zM24.96 22.463c0 0.707-0.573 1.28-1.28 1.28s-1.28-0.573-1.28-1.28c0-0.707 0.573-1.28 1.28-1.28s1.28 0.573 1.28 1.28z"></path>
</symbol>
<symbol id="icon-facebook" viewBox="0 0 32 32">
<path fill="#f53838" style="fill: var(--color1, #f53838)" d="M23.256 10.087c0 4.182-3.39 7.572-7.572 7.572s-7.572-3.39-7.572-7.572c0-4.182 3.39-7.572 7.572-7.572s7.572 3.39 7.572 7.572z"></path>
<path fill="#fff" style="fill: var(--color2, #fff)" d="M15.684 2.515c-4.182 0-7.572 3.39-7.572 7.572s3.39 7.572 7.572 7.572c4.182 0 7.572-3.39 7.572-7.572s-3.39-7.572-7.572-7.572zM17.478 7.748h-1.138c-0.135 0-0.285 0.177-0.285 0.413v0.822h1.424l-0.215 1.172h-1.208v3.518h-1.343v-3.518h-1.219v-1.172h1.219v-0.689c0-0.989 0.686-1.793 1.628-1.793h1.138v1.247z"></path>
</symbol>
<symbol id="icon-features-img" viewBox="0 0 39 32">
<path fill="#000" style="fill: var(--color3, #000)" d="M29.321 22.618l-3.056-1.794-2.4 3.572c1.402 1.17 3.758 2.021 4.975 1.761 2.498-0.533 7.546-7.626 8.246-8.166 2.384-1.838 3.16-2.536 0.176-1.107-2.845 1.362-1.338 0-2.035 0-0.837 0.058-0.56 0.802-0.249 1.334l-5.658 4.4z"></path>
<path fill="#000" style="fill: var(--color3, #000)" d="M11.984 19.901c0.862-0.599 4.268-1.677 5.764-2.141l1.583 0.173c0.997 0.247 3.136 0.669 4.12 1.068s2.769 1.671 4.435 2.732l-0.393 1.362c-0.353 1.223-1.287 2.193-2.496 2.593-0.311 1.979-0.579 5.195-0.535 6.193l-11.576-0.009-0.53-4.896-2.384 0.255-2.014-1.543c2.521-4.361 2.948-5.037 4.026-5.786z"></path>
<path fill="#000" style="fill: var(--color3, #000)" d="M8.672 31.151c-3.668-0.465-1.282-4.182-0.632-5.41 0.787 0.662 1.758 1.066 2.782 1.157l1.264 0.112-0.518 1.194 5.588 1.308 0.784 2.175c-0.558-0.095-4.707 0.042-9.268-0.536z"></path>
<path fill="#30235b" style="fill: var(--color4, #30235b)" d="M18.138 8c0.181-0.326 0.698-0.783 1.325 0h-1.325z"></path>
<path fill="#cf0606" style="fill: var(--color5, #cf0606)" d="M20.437 19.183c0 0.786-0.894 1.424-1.998 1.424s-1.998-0.637-1.998-1.424c0-0.786 0.894-1.424 1.998-1.424s1.998 0.637 1.998 1.424z"></path>
<path fill="#000" style="fill: var(--color3, #000)" d="M16.802 19.107l0.279-2.781h2.719l0.312 2.781c-0.109 0.327-0.625 0.992-1.579 0.992-1.216 0-1.654-0.664-1.732-0.992z"></path>
<path fill="#000" style="fill: var(--color3, #000)" opacity="0.1" d="M20.78 16.433c-2.458 3.042-3.832 0.596-4.542 0.229l0.488-2.056 2.911-0.348 1.143 2.175z"></path>
<path fill="#000" style="fill: var(--color3, #000)" d="M18.392 17.442c-2.932 0-3.436-4.209-2.53-6.134 2.038-2.491 4.586-1.038 5.605 0 0.245 1.604 0.516 6.134-3.075 6.134z"></path>
<path fill="#111" style="fill: var(--color6, #111)" d="M21.517 14.223l-0.574-0.423 0.089-0.315 0.656 0.433-0.171 0.306z"></path>
<path fill="#111" style="fill: var(--color6, #111)" d="M15.532 14.1l0.574-0.423-0.089-0.315-0.656 0.433 0.171 0.306z"></path>
<path fill="#30235b" style="fill: var(--color4, #30235b)" d="M16.058 11.561c2.079 1.354 4.383 0.564 5.276 0-0.188 0.593 0.078 1.732 0.235 2.227 1.353-1.761 0.91-2.713 0.52-2.968-0.065-0.878-0.863-3.073-3.542-2.969s-3.199 2.004-3.123 2.709c-1.014 1.379-0.411 2.726 0.078 3.228 0.556-1.080 0.544-1.838 0.556-2.227z"></path>
<path fill="#fff" style="fill: var(--color2, #fff)" d="M18.759 9.207c-3.103-0.104-3.795 1.937-3.887 3.122-0.007 0.095-0.085 0.17-0.18 0.17-0.102 0-0.183-0.085-0.173-0.186 0.135-1.52 0.946-4.175 4.241-3.992 3.327 0.185 3.978 2.834 3.876 4.31-0.005 0.079-0.072 0.139-0.151 0.139-0.086 0-0.156-0.070-0.159-0.156-0.049-1.225-0.863-3.328-3.566-3.407z"></path>
<path fill="#24c28a" style="fill: var(--color7, #24c28a)" d="M22.905 13.292c0.115 0.020 0.191 0.13 0.171 0.244l-0.209 1.177c-0.020 0.115-0.13 0.191-0.244 0.171s-0.191-0.13-0.171-0.244l0.209-1.177c0.020-0.115 0.13-0.191 0.244-0.171z"></path>
<path fill="#fff" style="fill: var(--color2, #fff)" d="M22.431 12.32v0c0.353 0.063 0.588 0.399 0.526 0.752l-0.361 2.038c-0.063 0.353-0.399 0.588-0.752 0.525v0c-0.353-0.063-0.588-0.399-0.526-0.752l0.361-2.038c0.063-0.353 0.399-0.588 0.752-0.525z"></path>
<path fill="#24c28a" style="fill: var(--color7, #24c28a)" d="M14.113 13.292c-0.115 0.020-0.191 0.13-0.171 0.244l0.209 1.177c0.020 0.115 0.13 0.191 0.244 0.171s0.191-0.13 0.171-0.244l-0.209-1.177c-0.020-0.115-0.13-0.191-0.244-0.171z"></path>
<path fill="#fff" style="fill: var(--color2, #fff)" d="M14.574 12.32v0c-0.353 0.063-0.588 0.399-0.525 0.752l0.361 2.038c0.063 0.353 0.399 0.588 0.752 0.525v0c0.353-0.063 0.588-0.399 0.525-0.752l-0.361-2.038c-0.063-0.353-0.399-0.588-0.752-0.525z"></path>
<path fill="#e8e8e8" style="fill: var(--color8, #e8e8e8)" d="M14.602 12.207l1.662-0.296 0.641 3.599-1.662 0.296-0.641-3.599z"></path>
<path fill="#e8e8e8" style="fill: var(--color8, #e8e8e8)" d="M22.482 12.207l-1.662-0.296-0.641 3.599 1.662 0.296 0.641-3.599z"></path>
<path fill="#e6fcff" style="fill: var(--color9, #e6fcff)" opacity="0.5" d="M17.129 14.714c-0.415 0-0.624-0.327-0.677-0.473-0.061-0.122-0.109-0.44 0.035-0.693 0.184-0.321 1.048-0.411 1.35 0.043s0 1.123-0.709 1.123z"></path>
<path fill="#e6fcff" style="fill: var(--color9, #e6fcff)" opacity="0.5" d="M19.877 14.714c0.415 0 0.624-0.327 0.677-0.473 0.061-0.122 0.109-0.44-0.035-0.693-0.184-0.321-1.048-0.411-1.35 0.043s0 1.123 0.709 1.123z"></path>
<path fill="#111" style="fill: var(--color6, #111)" d="M18.052 13.491c-0.676-0.594-1.288-0.343-1.65-0.194-0.040 0.017-0.077 0.032-0.111 0.045l-0.227 0c-0.043 0-0.077 0.035-0.077 0.078l0.002 0.191c0 0.042 0.035 0.076 0.077 0.076h0.164c-0.119 1.019 0.633 1.292 1.234 1.108 0.536-0.164 0.679-0.627 0.708-0.918 0.115-0.254 0.617-0.137 0.637-0.006 0 0.003 0.001 0.007 0.002 0.010v0c0.024 0.16 0.142 0.963 1.047 0.964 0.741 0.001 0.942-0.661 0.95-0.992l0.192-0.002c0.042-0 0.077-0.035 0.076-0.078l-0.002-0.233c-0-0.042-0.035-0.077-0.078-0.076l-0.192 0.002c-0.483-0.489-1.52-0.443-1.885 0.017-0.403-0.093-0.746-0.034-0.868 0.008zM17.129 14.714c-0.415 0-0.624-0.327-0.677-0.473-0.061-0.122-0.109-0.44 0.035-0.693 0.184-0.321 1.048-0.411 1.35 0.043s0 1.123-0.709 1.123zM20.554 14.241c-0.053 0.146-0.262 0.473-0.677 0.473-0.709 0-1.011-0.669-0.709-1.123s1.166-0.364 1.35-0.043c0.145 0.253 0.096 0.571 0.035 0.693z"></path>
<path fill="#b4b4b4" style="fill: var(--color10, #b4b4b4)" d="M12.64 31.466c0-0.043 0.035-0.077 0.077-0.077h11.876c0.075 0 0.135 0.061 0.135 0.135 0 0.224-0.182 0.406-0.406 0.406h-11.219c-0.256 0-0.464-0.208-0.464-0.464z"></path>
<path fill="#000" style="fill: var(--color3, #000)" d="M12.867 23.502h11.635c0.125 0 0.227 0.101 0.227 0.227v7.635c0 0.125-0.101 0.227-0.227 0.227h-11.636c-0.125 0-0.227-0.101-0.227-0.227v-7.635c0-0.125 0.101-0.227 0.227-0.227z"></path>
<path fill="#fff" style="fill: var(--color2, #fff)" d="M19.544 27.546c0 0.475-0.385 0.86-0.86 0.86s-0.86-0.385-0.86-0.86c0-0.475 0.385-0.86 0.86-0.86s0.86 0.385 0.86 0.86z"></path>
<path fill="#000" style="fill: var(--color3, #000)" d="M10.095 13.096c0.015-0.262 0.068-0.482 0.111-0.604 0.086 0.214 0.128 0.419 0.142 0.607 0.187 0.014 0.393 0.057 0.607 0.142-0.122 0.044-0.341 0.096-0.604 0.111-0.015 0.278-0.086 0.495-0.145 0.605-0.072-0.201-0.105-0.408-0.113-0.603-0.195-0.009-0.402-0.041-0.603-0.113 0.111-0.059 0.327-0.131 0.605-0.145z"></path>
<path fill="#000" style="fill: var(--color3, #000)" d="M8.027 11.371c0.010-0.175 0.045-0.321 0.074-0.402 0.057 0.142 0.085 0.279 0.095 0.404 0.125 0.010 0.261 0.038 0.404 0.095-0.081 0.029-0.227 0.064-0.402 0.074-0.010 0.185-0.057 0.329-0.097 0.403-0.048-0.134-0.070-0.272-0.075-0.402-0.13-0.006-0.268-0.028-0.402-0.075 0.074-0.039 0.218-0.087 0.403-0.097z"></path>
<path fill="#000" style="fill: var(--color3, #000)" d="M4.694 10.142c0.015-0.262 0.068-0.482 0.111-0.604 0.086 0.214 0.128 0.419 0.142 0.607 0.187 0.014 0.393 0.057 0.607 0.142-0.122 0.044-0.341 0.096-0.604 0.111-0.015 0.278-0.086 0.495-0.145 0.605-0.072-0.201-0.105-0.408-0.113-0.603-0.195-0.009-0.402-0.041-0.603-0.113 0.111-0.059 0.327-0.131 0.605-0.145z"></path>
<path fill="#000" style="fill: var(--color3, #000)" d="M4.98 16.168c0.023-0.386 0.099-0.709 0.164-0.888 0.126 0.315 0.188 0.617 0.209 0.893 0.276 0.021 0.578 0.083 0.893 0.209-0.179 0.064-0.502 0.141-0.888 0.164-0.021 0.41-0.127 0.728-0.214 0.891-0.106-0.296-0.154-0.601-0.167-0.888-0.287-0.013-0.592-0.061-0.888-0.167 0.163-0.087 0.481-0.192 0.891-0.214z"></path>
<path fill="#2f235a" style="fill: var(--color11, #2f235a)" d="M7.465 13.887c0 0.078-0.063 0.142-0.142 0.142s-0.142-0.063-0.142-0.142c0-0.078 0.063-0.142 0.142-0.142s0.142 0.063 0.142 0.142z"></path>
<path fill="#fe9076" style="fill: var(--color12, #fe9076)" d="M10.716 9.826c0 0.078-0.063 0.142-0.142 0.142s-0.142-0.063-0.142-0.142c0-0.078 0.063-0.142 0.142-0.142s0.142 0.063 0.142 0.142z"></path>
<path fill="#ffa400" style="fill: var(--color13, #ffa400)" d="M3.591 13.325c0 0.078-0.063 0.142-0.142 0.142s-0.142-0.063-0.142-0.142c0-0.078 0.063-0.142 0.142-0.142s0.142 0.063 0.142 0.142z"></path>
<path fill="#23bb86" style="fill: var(--color14, #23bb86)" d="M9.939 16.072c0 0.078-0.063 0.142-0.142 0.142s-0.142-0.063-0.142-0.142c0-0.078 0.063-0.142 0.142-0.142s0.142 0.063 0.142 0.142z"></path>
<path fill="#000" style="fill: var(--color3, #000)" d="M26.814 13.096c-0.015-0.262-0.068-0.482-0.111-0.604-0.086 0.214-0.128 0.419-0.142 0.607-0.187 0.014-0.393 0.057-0.607 0.142 0.122 0.044 0.341 0.096 0.604 0.111 0.015 0.278 0.086 0.495 0.145 0.605 0.072-0.201 0.105-0.408 0.113-0.603 0.195-0.009 0.402-0.041 0.603-0.113-0.111-0.059-0.327-0.131-0.605-0.145z"></path>
<path fill="#000" style="fill: var(--color3, #000)" d="M28.883 11.371c-0.010-0.175-0.045-0.321-0.074-0.402-0.057 0.142-0.085 0.279-0.095 0.404-0.125 0.010-0.261 0.038-0.404 0.095 0.081 0.029 0.227 0.064 0.402 0.074 0.010 0.185 0.057 0.329 0.097 0.403 0.048-0.134 0.070-0.272 0.075-0.402 0.13-0.006 0.268-0.028 0.402-0.075-0.074-0.039-0.218-0.087-0.403-0.097z"></path>
<path fill="#000" style="fill: var(--color3, #000)" d="M32.215 10.142c-0.015-0.262-0.068-0.482-0.111-0.604-0.086 0.214-0.128 0.419-0.142 0.607-0.187 0.014-0.393 0.057-0.607 0.142 0.122 0.044 0.342 0.096 0.604 0.111 0.015 0.278 0.086 0.495 0.145 0.605 0.072-0.201 0.105-0.408 0.113-0.603 0.195-0.009 0.402-0.041 0.603-0.113-0.111-0.059-0.327-0.131-0.605-0.145z"></path>
<path fill="#000" style="fill: var(--color3, #000)" d="M31.93 16.168c-0.023-0.386-0.099-0.709-0.164-0.888-0.126 0.315-0.188 0.617-0.209 0.893-0.276 0.021-0.578 0.083-0.893 0.209 0.179 0.064 0.502 0.141 0.888 0.164 0.022 0.41 0.127 0.728 0.214 0.891 0.106-0.296 0.154-0.601 0.167-0.888 0.287-0.013 0.592-0.061 0.888-0.167-0.163-0.087-0.481-0.192-0.891-0.214z"></path>
<path fill="#2f235a" style="fill: var(--color11, #2f235a)" d="M29.445 13.887c0 0.078 0.063 0.142 0.142 0.142s0.142-0.063 0.142-0.142c0-0.078-0.063-0.142-0.142-0.142s-0.142 0.063-0.142 0.142z"></path>
<path fill="#fe9076" style="fill: var(--color12, #fe9076)" d="M26.194 9.826c0 0.078 0.063 0.142 0.142 0.142s0.142-0.063 0.142-0.142c0-0.078-0.063-0.142-0.142-0.142s-0.142 0.063-0.142 0.142z"></path>
<path fill="#ffa400" style="fill: var(--color13, #ffa400)" d="M33.319 13.325c0 0.078 0.063 0.142 0.142 0.142s0.142-0.063 0.142-0.142c0-0.078-0.063-0.142-0.142-0.142s-0.142 0.063-0.142 0.142z"></path>
<path fill="#23bb86" style="fill: var(--color14, #23bb86)" d="M26.97 16.072c0 0.078 0.063 0.142 0.142 0.142s0.142-0.063 0.142-0.142c0-0.078-0.063-0.142-0.142-0.142s-0.142 0.063-0.142 0.142z"></path>
<path fill="#ffbcbc" style="fill: var(--color15, #ffbcbc)" d="M20.765 4.35c-0.161-0.248-0.486-0.113-0.486 0.157 0 0.203 0.446 0.52 0.486 0.562 0.040-0.041 0.464-0.359 0.464-0.562 0-0.268-0.303-0.405-0.464-0.157z"></path>
<path fill="#ffbcbc" style="fill: var(--color15, #ffbcbc)" d="M16.956 2.871c-0.142-0.22-0.43-0.1-0.43 0.139 0 0.18 0.394 0.461 0.43 0.497 0.036-0.037 0.411-0.317 0.411-0.497 0-0.237-0.268-0.359-0.411-0.139z"></path>
<path fill="#ffbcbc" style="fill: var(--color15, #ffbcbc)" d="M19.47 1.257c-0.097-0.15-0.294-0.068-0.294 0.095 0 0.123 0.27 0.315 0.294 0.34 0.024-0.025 0.281-0.217 0.281-0.34 0-0.162-0.183-0.245-0.281-0.095z"></path>
<path fill="#ffbcbc" style="fill: var(--color15, #ffbcbc)" d="M15.029 0.421c-0.080-0.123-0.241-0.056-0.241 0.078 0 0.101 0.221 0.258 0.241 0.278 0.020-0.020 0.23-0.178 0.23-0.278 0-0.133-0.15-0.201-0.23-0.078z"></path>
<path fill="#ffbcbc" style="fill: var(--color15, #ffbcbc)" d="M14.638 6.182c-0.174-0.268-0.525-0.122-0.525 0.17 0 0.219 0.482 0.563 0.525 0.607 0.044-0.045 0.502-0.388 0.502-0.607 0-0.29-0.328-0.438-0.502-0.17z"></path>
</symbol>
<symbol id="icon-location" viewBox="0 0 31 32">
<path fill="#f53838" style="fill: var(--color1, #f53838)" d="M24.32 12.223c0-1.177-0.232-2.342-0.682-3.429s-1.11-2.075-1.942-2.907c-0.832-0.832-1.82-1.492-2.907-1.942s-2.252-0.682-3.429-0.682c-1.177 0-2.342 0.232-3.429 0.682s-2.075 1.11-2.907 1.942c-0.832 0.832-1.492 1.82-1.942 2.907s-0.682 2.252-0.682 3.429c0 1.775 0.525 3.427 1.414 4.819h-0.010c3.021 4.73 7.556 11.821 7.556 11.821l7.556-11.821h-0.009c0.922-1.438 1.412-3.111 1.413-4.819zM15.36 16.063c-1.018 0-1.995-0.405-2.715-1.125s-1.125-1.697-1.125-2.715c0-1.018 0.405-1.995 1.125-2.715s1.697-1.125 2.715-1.125c1.018 0 1.995 0.405 2.715 1.125s1.125 1.697 1.125 2.715c0 1.018-0.405 1.995-1.125 2.715s-1.697 1.125-2.715 1.125z"></path>
</symbol>
<symbol id="icon-user" viewBox="0 0 32 32">
<path fill="#f53838" style="fill: var(--color1, #f53838)" d="M16 14.527c1.222 0 2.394-0.486 3.258-1.35s1.35-2.036 1.35-3.258-0.485-2.394-1.35-3.258c-0.864-0.864-2.036-1.35-3.258-1.35s-2.394 0.486-3.258 1.35c-0.864 0.864-1.35 2.036-1.35 3.258s0.485 2.394 1.35 3.258c0.864 0.864 2.036 1.35 3.258 1.35zM9.47 28.351c-2.332 0-4.296-1.96-3.404-4.115 0.54-1.304 1.332-2.49 2.331-3.488s2.184-1.79 3.488-2.331c1.304-0.54 2.703-0.818 4.115-0.818s2.81 0.278 4.115 0.818c1.305 0.54 2.49 1.332 3.488 2.331s1.79 2.184 2.331 3.488c0.892 2.154-1.072 4.115-3.404 4.115h-13.059z"></path>
</symbol>
<symbol id="icon-hero-img" viewBox="0 0 51 32">
<path fill="#000" style="fill: var(--color3, #000)" d="M12.387 18.773c0.936-0.65 4.42-1.821 6.045-2.326h1.825c1.083 0.268 3.517 0.914 4.585 1.347s3.017 2.999 3.799 4.19l-0.851 1.63c-2.166 2.137-0.421 4.024 0.735 4.722-1.733 0-2.479-0.65-2.636-0.975 0.173 0.982 0.313 3.394 0.361 4.477h-12.745v-1.968h-4.861c-0.448-4.901 2.572-10.285 3.742-11.097z"></path>
<path fill="#cf0606" style="fill: var(--color5, #cf0606)" d="M21.652 17.994c0 0.854-0.972 1.546-2.17 1.546s-2.17-0.692-2.17-1.546c0-0.854 0.972-1.546 2.17-1.546s2.17 0.692 2.17 1.546z"></path>
<path fill="#000" style="fill: var(--color3, #000)" d="M17.871 17.834c0.282-1.62 0.182-3.118 0.138-3.635 0.062-0.484 2.623 0.423 3.855 0.907-0.695 0.352-0.884 2.112-0.891 2.949 0.022 0.275-0.15 0.858-1.012 0.99-1.444 0.167-1.995-0.737-2.091-1.21z"></path>
<path fill="#000" style="fill: var(--color3, #000)" opacity="0.1" d="M21.438 16.786c-1.735-0.271-3.021-1.796-3.447-2.525 0.99-0.204 3.216-0.49 4.201 0s-0.092 1.887-0.754 2.525z"></path>
<path fill="#000" style="fill: var(--color3, #000)" d="M20.91 15.402c2.849-0.124 2.931-4.020 2.615-5.953-5.148-4.363-7.215-0.935-7.605 1.325 0.476 1.594 2.14 4.752 4.99 4.628z"></path>
<path fill="#30235b" style="fill: var(--color4, #30235b)" d="M17.232 5.554c-0.82-0.258-2.529-0.388-2.807 1.163 0 1.002 2.419 0.748 2.807-1.163z"></path>
<path fill="#111" style="fill: var(--color6, #111)" d="M18.219 10.703l1.161 0.997-0.126 0.582-1.083-0.95 0.048-0.628z"></path>
<path fill="#30235b" style="fill: var(--color4, #30235b)" d="M17.038 11.599c0.991 0.84 1.055 2.151 0.963 2.701-0.321-0.086-1.218-0.643-2.237-2.185-1.624-3.317 0.333-5.798 1.514-6.624 3.166-1.841 7.398 1.015 6.659 3.2s-4.278 1.68-5.592 0.843c0.275 0.826 0.023 1.64-0.138 1.944-0.619-1.445-2.409-0.929-1.17 0.12z"></path>
<path fill="#fff" style="fill: var(--color2, #fff)" d="M19.16 5.065c2.108-0.606 3.392 0.486 3.771 1.107-0.425-0.229-1.604-0.549-2.916 0-2.075 0.953-2.528 2.986-2.495 3.883l-1.374-0.098v-0.505c0.126-1.21 0.905-3.782 3.014-4.387z"></path>
<path fill="#fff" style="fill: var(--color2, #fff)" d="M18.321 11.285c0 1.089-0.722 1.973-1.612 1.973s-1.612-0.883-1.612-1.973c0-1.089 0.722-1.973 1.612-1.973s1.612 0.883 1.612 1.973z"></path>
<path fill="#24c28a" style="fill: var(--color7, #24c28a)" d="M17.479 11.285c0 0.52-0.345 0.942-0.77 0.942s-0.77-0.422-0.77-0.942c0-0.52 0.345-0.942 0.77-0.942s0.77 0.422 0.77 0.942z"></path>
<path fill="#e6fcff" style="fill: var(--color9, #e6fcff)" opacity="0.5" d="M23.754 10.984c-0.598-0.185-1.241 0.209-1.488 0.429-0.449 0.429 0.232 1.52 1.020 1.017 0.63-0.402 0.575-1.132 0.469-1.447z"></path>
<path fill="#111" style="fill: var(--color6, #111)" d="M22.012 11.284c-0.113 0-0.368 0.023-0.484 0.113-0.438-0.188-1.508-0.374-2.283 0.385v0.504h0.123c0.055 0.284 0.314 0.878 0.909 0.986 0.744 0.135 1.436-0.448 1.411-1.31 0.030-0.066 0.128-0.168 0.274-0.049 0.036 0.31 0.3 0.906 1.071 0.811 0.964-0.12 1.139-1.471 0.964-1.934-0.302-0.168-1.122-0.305-1.986 0.494zM23.708 11.038c0.106 0.315 0.068 1.129-0.425 1.392-0.825 0.44-1.415-0.612-0.965-1.041 0.247-0.22 0.793-0.536 1.391-0.352zM20.329 11.6c0.326-0.106 0.992-0.177 1.043 0.388 0.064 0.707-0.579 1.228-1.141 0.95-0.407-0.201-0.573-0.614-0.573-0.875 0-0.209 0.448-0.396 0.672-0.463z"></path>
<path fill="#e6fcff" style="fill: var(--color9, #e6fcff)" opacity="0.5" d="M21.374 11.989c-0.051-0.565-0.716-0.494-1.043-0.388-0.224 0.068-0.672 0.255-0.672 0.463 0 0.261 0.167 0.673 0.573 0.875 0.562 0.278 1.205-0.243 1.141-0.95z"></path>
<path fill="#000" style="fill: var(--color3, #000)" d="M8.64 29.877c0.501 2.234 3.478 2.238 4.904 1.961l10.989-1.588c0.142 0.123 0.481 0.447 0.705 0.761s0.429 0.093 0.503-0.056c0.322 0.349 0.559 0.183 0.637 0.056 0.277 0.349 0.511 0.227 0.593 0.123 0.385 0.286 0.482 0.038 0.482-0.123-0.525-1.111-1.466-2.225-1.872-2.644l-2.74 0.251-8.903-0.908c-1.689-1.185-5.925-0.627-5.299 2.166z"></path>
<path fill="#000" style="fill: var(--color3, #000)" d="M29.932 26.497c-0.496 1.603-1.181 1.883-1.461 1.823-2.948-1.973-1.682-3.994-0.681-4.759l2.611-5.375c-0.378-0.296-0.799-1.22-0.756-1.803 0.035-0.466 0.353-0.482 0.508-0.432 0.043-0.483 0.392-0.468 0.562-0.4 0.147-0.527 0.572-0.414 0.767-0.292 0.026-0.726 0.529-0.626 0.777-0.486l0.436 1.177c0.178 0.025 0.591 0.082 0.819 0.113 0.284 0.039 0.646 0.090 0.465 0.491-0.145 0.321-0.879 1.418-1.228 1.926-0.733 2.004-2.322 6.412-2.818 8.015z"></path>
<path fill="#b4b4b4" style="fill: var(--color10, #b4b4b4)" d="M22.418 31.262h5.749c0 0.319-0.258 0.577-0.577 0.577h-4.595c-0.319 0-0.577-0.258-0.577-0.577z"></path>
<path fill="#000" style="fill: var(--color3, #000)" d="M29.999 24.164c0.040-0.096 0.134-0.159 0.239-0.159h9.709c0.185 0 0.31 0.188 0.239 0.358l-3.050 7.316c-0.040 0.096-0.134 0.159-0.239 0.159h-9.709c-0.185 0-0.31-0.188-0.239-0.358l3.050-7.316z"></path>
<path fill="#fff" style="fill: var(--color2, #fff)" d="M34.537 28.332c-0.179 0.494-0.6 0.794-0.941 0.671s-0.473-0.624-0.294-1.118c0.179-0.494 0.6-0.794 0.941-0.671s0.473 0.624 0.294 1.118z"></path>
<path fill="#e0e0e0" style="fill: var(--color16, #e0e0e0)" d="M50.894 21.807l-4.856 9.379-0.768-0.398 4.856-9.379 0.768 0.398z"></path>
<path fill="#30235b" style="fill: var(--color4, #30235b)" d="M43.691 30.533h4.365c0.143 0 0.259 0.116 0.259 0.259v0.788c0 0.143-0.116 0.259-0.259 0.259h-4.365c-0.143 0-0.259-0.116-0.259-0.259v-0.788c0-0.143 0.116-0.259 0.259-0.259z"></path>
<path fill="#e0e0e0" style="fill: var(--color16, #e0e0e0)" d="M50.335 21.892l-4.331-3.664 0.559-0.66 4.331 3.664-0.559 0.66z"></path>
<path fill="#e0e0e0" style="fill: var(--color16, #e0e0e0)" d="M46.097 17.851l-1.593 0.514-0.091-0.284 1.593-0.514 0.091 0.284z"></path>
<path fill="#30235b" style="fill: var(--color4, #30235b)" d="M51.133 21.544c0 0.334-0.271 0.604-0.604 0.604s-0.604-0.271-0.604-0.604c0-0.334 0.271-0.604 0.604-0.604s0.604 0.271 0.604 0.604z"></path>
<path fill="#30235b" style="fill: var(--color4, #30235b)" d="M45.719 17.414l0.847 0.157-0.559 0.655-0.287-0.812z"></path>
<path fill="#30235b" style="fill: var(--color4, #30235b)" d="M43.082 17.132c0.195-0.49 0.75-0.729 1.24-0.534s0.729 0.75 0.534 1.24l-0.539 1.355-1.774-0.706 0.539-1.355z"></path>
<path fill="#30235b" style="fill: var(--color4, #30235b)" d="M43.644 18.514c-1.969-0.773-3.279 0.959-3.741 1.876 1.367 1.949 3.871 2.149 5.006 2.051 0.399-0.987 0.704-3.154-1.265-3.927z"></path>
<path fill="#000" style="fill: var(--color3, #000)" d="M3.843 25.854c-1.267 0.775-1.665 0.068-1.706-0.382 0-0.655 0-1.201-0.86-2.171-2.075-2.293-1.42-5.952 1.447-6.184s2.034 1.584 1.024 2.758c-1.008 1.172-0.371 1.527 1.138 2.37l0.009 0.005c1.966 1.188 0.328 2.252-0.642 2.444s-0.136 0.778-0.41 1.16z"></path>
<path fill="#000" style="fill: var(--color3, #000)" d="M6.716 29.117c0.107-1.228-1.027-1.523-1.721-1.523-0.083 0-0.155 0.057-0.179 0.137-0.040 0.131 0.061 0.262 0.197 0.272 0.613 0.046 1.439 0.307 1.287 1.114-0.148 0.783-0.827 0.931-1.307 0.897-0.132-0.009-0.256 0.089-0.256 0.222 0 0.099 0.070 0.185 0.168 0.195 0.648 0.068 1.707-0.112 1.812-1.315z"></path>
<path fill="#000" style="fill: var(--color3, #000)" d="M4.936 27.162v4.418c0 0.143-0.116 0.259-0.259 0.259h-3.488c-0.143 0-0.259-0.116-0.259-0.259v-4.418c0-0.143 0.116-0.259 0.259-0.259h3.488c0.143 0 0.259 0.116 0.259 0.259z"></path>
<path fill="#30235b" style="fill: var(--color4, #30235b)" d="M21.091 28.431c-0.266 0.899-0.111 1.915 0 2.31l0.741-0.105c-0.154-1.178-0.064-1.906 0-2.123l-0.741-0.082z"></path>
<path fill="#000" style="fill: var(--color3, #000)" d="M20.978 28.065l1.032 0.109c0.1 0.011 0.172 0.1 0.162 0.2s-0.1 0.172-0.2 0.162l-1.032-0.109c-0.1-0.011-0.172-0.1-0.162-0.2s0.1-0.172 0.2-0.162z"></path>
<path fill="#ff7979" style="fill: var(--color17, #ff7979)" d="M31.029 2.321c0.129 0.074 0.129 0.26 0 0.334l-1.61 0.93c-0.129 0.074-0.289-0.019-0.289-0.167v-1.859c0-0.149 0.161-0.241 0.289-0.167l1.61 0.93z"></path>
<path fill="#fff" style="fill: var(--color2, #fff)" opacity="0.5" d="M28.28 0.716h3.558v3.278h-3.558v-3.278z"></path>
<path fill="#000" style="fill: var(--color3, #000)" d="M6.516 3.328c0.101 0 0.198 0.040 0.269 0.111s0.111 0.168 0.111 0.269v1.142c0 0.101-0.040 0.198-0.111 0.269s-0.168 0.111-0.269 0.111h-1.903c-0.101 0-0.198-0.040-0.269-0.111s-0.111-0.168-0.111-0.269v-1.142c0-0.101 0.040-0.198 0.111-0.269s0.168-0.111 0.269-0.111v-0.952c0-0.252 0.1-0.494 0.279-0.673s0.42-0.279 0.673-0.279c0.252 0 0.494 0.1 0.673 0.279s0.279 0.42 0.279 0.673v0.952zM5.564 4.66c0.101 0 0.198-0.040 0.269-0.111s0.111-0.168 0.111-0.269c0-0.101-0.040-0.198-0.111-0.269s-0.168-0.111-0.269-0.111c-0.101 0-0.198 0.040-0.269 0.111s-0.111 0.168-0.111 0.269c0 0.101 0.040 0.198 0.111 0.269s0.168 0.111 0.269 0.111zM6.135 3.328v-0.952c0-0.151-0.060-0.297-0.167-0.404s-0.252-0.167-0.404-0.167c-0.151 0-0.297 0.060-0.404 0.167s-0.167 0.252-0.167 0.404v0.952h1.142z"></path>
<path fill="#fff" style="fill: var(--color2, #fff)" opacity="0.5" d="M3.054 0.681h5.076v4.882h-5.076v-4.882z"></path>
<path fill="#ff7979" style="fill: var(--color17, #ff7979)" d="M6.737 11.024h3.704v4.568h-3.704v-4.568z"></path>
<path fill="#fff" style="fill: var(--color2, #fff)" opacity="0.5" d="M7.157 11.615h3.587v3.79h-3.587v-3.79z"></path>
<path fill="#ff7979" style="fill: var(--color17, #ff7979)" d="M38.258 8.537h1.155c0.119 0 0.216 0.097 0.216 0.216v1.788c0 0.119-0.097 0.216-0.216 0.216h-1.155c-0.119 0-0.216-0.097-0.216-0.216v-1.788c0-0.119 0.097-0.216 0.216-0.216z"></path>
<path fill="#9effae" style="fill: var(--color18, #9effae)" d="M40.635 7.182h1.155c0.119 0 0.216 0.097 0.216 0.216v3.143c0 0.119-0.097 0.216-0.216 0.216h-1.155c-0.119 0-0.216-0.097-0.216-0.216v-3.143c0-0.119 0.097-0.216 0.216-0.216z"></path>
<path fill="#ffdead" style="fill: var(--color19, #ffdead)" d="M43.013 7.758h1.155c0.119 0 0.216 0.097 0.216 0.216v2.567c0 0.119-0.097 0.216-0.216 0.216h-1.155c-0.119 0-0.216-0.097-0.216-0.216v-2.567c0-0.119 0.097-0.216 0.216-0.216z"></path>
<path fill="#fff" style="fill: var(--color2, #fff)" opacity="0.5" d="M37.057 6.647h8.062v4.881h-8.062v-4.881z"></path>
</symbol>
<symbol id="icon-instagram" viewBox="0 0 32 32">
<path fill="#f53838" style="fill: var(--color1, #f53838)" d="M23.346 10.087c0 4.182-3.39 7.572-7.572 7.572s-7.572-3.39-7.572-7.572c0-4.182 3.39-7.572 7.572-7.572s7.572 3.39 7.572 7.572z"></path>
<path fill="#fff" style="fill: var(--color2, #fff)" d="M18.141 10.087c0 0.628-0.249 1.229-0.693 1.673s-1.046 0.693-1.673 0.693c-0.628 0-1.229-0.249-1.673-0.693s-0.693-1.046-0.693-1.673c0-0.135 0.014-0.267 0.039-0.394h-0.827v3.153c0 0.219 0.177 0.397 0.397 0.397h5.517c0.105-0 0.206-0.042 0.28-0.117s0.116-0.175 0.116-0.28v-3.153h-0.827c0.024 0.128 0.039 0.259 0.039 0.394zM15.775 11.665c0.207-0 0.412-0.041 0.604-0.12s0.365-0.196 0.512-0.342c0.146-0.147 0.263-0.321 0.342-0.512s0.12-0.397 0.12-0.604c-0-0.207-0.041-0.412-0.12-0.604s-0.196-0.365-0.342-0.512c-0.147-0.146-0.321-0.263-0.512-0.342s-0.397-0.12-0.604-0.12c-0.418 0-0.82 0.166-1.116 0.462s-0.462 0.697-0.462 1.116 0.166 0.82 0.462 1.116c0.296 0.296 0.697 0.462 1.116 0.462zM17.668 8.431h0.946c0.063 0 0.123-0.025 0.168-0.069s0.070-0.105 0.070-0.167v-0.946c0-0.063-0.025-0.123-0.070-0.168s-0.105-0.069-0.168-0.069h-0.946c-0.063 0-0.123 0.025-0.168 0.069s-0.070 0.105-0.070 0.168v0.946c0.001 0.13 0.107 0.237 0.237 0.237zM15.775 2.515c-2.008 0-3.934 0.798-5.354 2.218s-2.218 3.346-2.218 5.354c0 2.008 0.798 3.934 2.218 5.354s3.346 2.218 5.354 2.218c0.994 0 1.979-0.196 2.898-0.576s1.753-0.938 2.457-1.641c0.703-0.703 1.261-1.538 1.641-2.456s0.576-1.903 0.576-2.898-0.196-1.979-0.576-2.898c-0.381-0.919-0.938-1.753-1.641-2.456s-1.538-1.261-2.457-1.641c-0.919-0.381-1.903-0.576-2.898-0.576zM19.718 13.154c0 0.482-0.394 0.876-0.876 0.876h-6.135c-0.482 0-0.876-0.394-0.876-0.876v-6.135c0-0.482 0.394-0.876 0.876-0.876h6.135c0.482 0 0.876 0.394 0.876 0.876v6.135z"></path>
</symbol>
<symbol id="icon-main-logo" viewBox="0 0 30 32">
<path fill="#f53838" style="fill: var(--color1, #f53838)" d="M26.938 12.474l-0.019-0.019c-0.001-0.001-0.003-0.002-0.003-0.004l-11.78-11.78-11.78 11.78c-0.001 0.001-0.003 0.004-0.003 0.004l-0.019 0.019c-1.801 1.811-2.946 4.173-3.251 6.709s0.246 5.102 1.567 7.289c1.32 2.187 3.334 3.87 5.72 4.781s5.009 0.999 7.451 0.248c0.205-0.063 0.425-0.063 0.631 0 2.442 0.75 5.064 0.663 7.451-0.248s4.4-2.594 5.72-4.781c1.32-2.187 1.872-4.752 1.567-7.289s-1.449-4.898-3.25-6.709zM7.544 20.242c-0.057 0.057-0.103 0.125-0.134 0.2s-0.047 0.155-0.047 0.236c0.021 2.079 0.609 4.113 1.7 5.883 0.025 0.040 0.036 0.087 0.033 0.134s-0.022 0.092-0.052 0.128c-0.031 0.036-0.072 0.061-0.117 0.073s-0.094 0.008-0.138-0.010c-0.82-0.345-1.565-0.847-2.194-1.476-1.288-1.288-2.012-3.034-2.013-4.855s0.721-3.568 2.006-4.858l8.547-8.546 8.547 8.546c1.286 1.289 2.008 3.037 2.007 4.858s-0.725 3.568-2.013 4.855c-0.628 0.63-1.373 1.131-2.193 1.476-0.044 0.018-0.092 0.021-0.138 0.010s-0.087-0.037-0.117-0.073c-0.030-0.036-0.049-0.081-0.052-0.128s0.008-0.094 0.033-0.134c1.091-1.77 1.679-3.804 1.7-5.883 0-0.081-0.016-0.161-0.047-0.236s-0.077-0.143-0.134-0.2l-4.043-4.288c-0.040-0.034-0.091-0.052-0.143-0.052s-0.103 0.018-0.143 0.052c-0.040 0.033-0.067 0.080-0.077 0.132s-0 0.105 0.025 0.15c1.57 2.841 0.22 6.922-2.032 9.174l-0.012 0.012c-0.311 0.307-0.73 0.48-1.167 0.48s-0.857-0.173-1.167-0.48l-0.011-0.011c-2.252-2.252-3.602-6.332-2.031-9.173 0.026-0.046 0.035-0.099 0.025-0.15s-0.037-0.098-0.077-0.132c-0.040-0.034-0.091-0.052-0.143-0.052s-0.103 0.018-0.143 0.052l-4.043 4.287z"></path>
</symbol>
<symbol id="icon-twitter" viewBox="0 0 32 32">
<path fill="#f53838" style="fill: var(--color1, #f53838)" d="M23.527 10.087c0 4.182-3.39 7.572-7.572 7.572s-7.572-3.39-7.572-7.572c0-4.182 3.39-7.572 7.572-7.572s7.572 3.39 7.572 7.572z"></path>
<path fill="#fff" style="fill: var(--color2, #fff)" d="M15.955 2.515c-4.182 0-7.572 3.39-7.572 7.572s3.39 7.572 7.572 7.572c4.182 0 7.572-3.39 7.572-7.572s-3.39-7.572-7.572-7.572zM19.035 8.718c0.003 0.065 0.004 0.129 0.004 0.192 0 1.972-1.499 4.244-4.243 4.244-0.811 0.001-1.604-0.231-2.286-0.67 0.116 0.014 0.235 0.020 0.356 0.020 0.699 0 1.342-0.237 1.852-0.638-0.311-0.006-0.612-0.109-0.862-0.295s-0.435-0.444-0.531-0.74c0.223 0.042 0.453 0.034 0.673-0.026-0.338-0.068-0.641-0.251-0.859-0.518s-0.337-0.6-0.337-0.945v-0.018c0.201 0.111 0.431 0.179 0.676 0.187-0.316-0.211-0.54-0.534-0.626-0.905s-0.027-0.759 0.165-1.088c0.375 0.461 0.842 0.837 1.371 1.106s1.109 0.423 1.702 0.453c-0.075-0.32-0.043-0.656 0.092-0.956s0.366-0.546 0.655-0.701c0.29-0.155 0.623-0.21 0.947-0.157s0.622 0.213 0.846 0.453c0.334-0.066 0.654-0.189 0.946-0.362-0.111 0.346-0.344 0.639-0.655 0.826 0.296-0.036 0.584-0.115 0.857-0.236-0.2 0.3-0.452 0.561-0.744 0.772z"></path>
</symbol>
</defs>
</svg>
